<svg xmlns="http://www.w3.org/2000/svg" viewBox="0 0 210.96 185.33"><defs><style>.cls-1{fill:#fff;}</style></defs><title>logo</title><g id="Layer_2" data-name="Layer 2"><g id="Layer_1-2" data-name="Layer 1"><path class="cls-1" d="M72.85,133a4,4,0,0,0,1.65,3.39,7.6,7.6,0,0,0,4.62,1.24,8.94,8.94,0,0,0,5.79-1.74,11,11,0,0,0,3.3-5.53,23.33,23.33,0,0,0-8.92-1.82C75,128.52,72.85,130,72.85,133Z"/><path class="cls-1" d="M209.64,87.74,161.82,4.92A9.86,9.86,0,0,0,153.3,0H57.66a9.83,9.83,0,0,0-8.52,4.92L1.32,87.74a9.85,9.85,0,0,0,0,9.85l47.82,82.82a9.83,9.83,0,0,0,8.52,4.92H153.3a9.86,9.86,0,0,0,8.52-4.92l47.82-82.82A9.9,9.9,0,0,0,209.64,87.74Zm-63.27,54q-6.28,7.09-17.35,7.1a34.56,34.56,0,0,1-14-2.64,78.69,78.69,0,0,1-13-7.44,30.29,30.29,0,0,1-23.3,10.08q-8.91,0-14.7-4.13a13.39,13.39,0,0,1-5.78-11.57,13.11,13.11,0,0,1,6.11-11.64q6.1-4.05,15.2-4a84.29,84.29,0,0,1,9.58.49,33.76,33.76,0,0,0-3-11.89H60.29V87.87H74a39.65,39.65,0,0,1-5-10,32.21,32.21,0,0,1-1.4-9.5A29.32,29.32,0,0,1,72.1,52.52q4.55-7.27,13.72-11.65t22.38-4.38q35.36,0,41.31,30.07L122.74,78.62Q120.43,68,117,63.92a11.63,11.63,0,0,0-9.42-4.13,12.1,12.1,0,0,0-8.18,2.64,9.1,9.1,0,0,0-3,7.27,16.44,16.44,0,0,0,1.48,6.44,54.94,54.94,0,0,0,5,8.59c1.1,1.66,1.76,2.7,2,3.14h32.55v18.18H111.84q.33,4,.33,5.78a45.05,45.05,0,0,1-1.82,12.56c2.32.77,4.41,1.38,6.28,1.81a26.12,26.12,0,0,0,6.11.67q10.74,0,9.75-12.73l19.17,2.65a28.74,28.74,0,0,1,1,7.6A25.26,25.26,0,0,1,146.37,141.74Z"/></g></g></svg>